<?xml version="1.0" encoding="utf-8"?>
<!-- Generator: Adobe Illustrator 18.0.0, SVG Export Plug-In . SVG Version: 6.00 Build 0)  -->
<!DOCTYPE svg PUBLIC "-//W3C//DTD SVG 1.1//EN" "http://www.w3.org/Graphics/SVG/1.1/DTD/svg11.dtd">
<svg version="1.1" id="Layer_1" xmlns="http://www.w3.org/2000/svg" xmlns:xlink="http://www.w3.org/1999/xlink" x="0px" y="0px"
	 viewBox="0 0 159.8 170.4" enable-background="new 0 0 159.8 170.4" xml:space="preserve">
<g>
	<g>
		<g>
			<polygon fill="none" stroke="#FFFFFF" stroke-width="10" stroke-linejoin="round" stroke-miterlimit="10" points="125.7,159.8 
				34.1,159.8 34.1,97.6 79.9,61.1 125.7,97.6 			"/>
			<polyline fill="none" stroke="#FFFFFF" stroke-width="10" stroke-linecap="round" stroke-miterlimit="10" points="23,106.5 
				79.9,61.1 136.8,106.5 			"/>
			<polyline fill="none" stroke="#FFFFFF" stroke-width="10" stroke-linejoin="round" stroke-miterlimit="10" points="50.4,83.8 
				50.4,54.1 79.9,30.5 109.5,54.1 109.5,82.7 			"/>
			<polyline fill="none" stroke="#FFFFFF" stroke-width="10" stroke-linecap="round" stroke-miterlimit="10" points="43.2,59.8 
				79.9,30.5 116.7,59.8 			"/>
		</g>
		
			<rect x="68.8" y="123.4" fill="none" stroke="#FFFFFF" stroke-width="10" stroke-linejoin="round" stroke-miterlimit="10" width="22.3" height="36.3"/>
		
			<line fill="#FFFFFF" stroke="#FFFFFF" stroke-width="10" stroke-linecap="round" stroke-linejoin="round" stroke-miterlimit="10" x1="79.9" y1="30.5" x2="79.9" y2="10.6"/>
		<path fill="none" stroke="#FFFFFF" stroke-width="10" stroke-linecap="round" stroke-linejoin="round" stroke-miterlimit="10" d="
			M81.5,12.4c0,0,4.2-3.1,7.1-1.2c2.9,1.9,6.8,0.3,6.8,0.3v8.3c0,0-4.5,0.5-6.9-0.8c-2.6-1.5-6.9,0.9-6.9,0.9V12.4z"/>
	</g>
	<polygon opacity="0.4" fill="#FFFFFF" points="52.1,57.1 79.9,33.9 106.5,55.8 106.5,78.5 122.6,99.5 122.6,157.4 37.1,157.4 
		37.1,98.8 52.6,83.8 	"/>
</g>
</svg>
