<?xml version="1.0" encoding="utf-8"?>
<!-- Generator: Adobe Illustrator 18.0.0, SVG Export Plug-In . SVG Version: 6.00 Build 0)  -->
<!DOCTYPE svg PUBLIC "-//W3C//DTD SVG 1.1//EN" "http://www.w3.org/Graphics/SVG/1.1/DTD/svg11.dtd">
<svg version="1.1" id="Layer_1" xmlns="http://www.w3.org/2000/svg" xmlns:xlink="http://www.w3.org/1999/xlink" x="0px" y="0px"
	 viewBox="0 430 184 73" enable-background="new 0 430 184 73" xml:space="preserve">
<g>
	<g>
		<g>
			
				<image overflow="visible" enable-background="new    " width="125" height="79" xlink:href="69D078E5B11A85E9.png"  transform="matrix(0.2276 0 0 0.2207 11.9061 441.2393)">
			</image>
			<path fill="#FFFFFF" d="M12.4,456.9L36.6,442l1.7,3.3L12.4,456.9z"/>
			<path fill="#010101" fill-opacity="0" stroke="#E12826" stroke-width="0.352" stroke-linejoin="bevel" d="M12.4,456.9L36.6,442
				l1.7,3.3L12.4,456.9z"/>
		</g>
		<g>
			
				<image overflow="visible" enable-background="new    " width="202" height="210" xlink:href="69D078E5B11A85EB.png"  transform="matrix(0.2283 0 0 0.2272 11.8126 443.5266)">
			</image>
			<path fill="#E12826" d="M12.4,456.9l28.1-12.6l15.4,32.5l-28.1,12.6L12.4,456.9z"/>
			<path fill="#010101" fill-opacity="0" stroke="#E12826" stroke-width="0.352" d="M12.4,456.9l28.1-12.6l15.4,32.5l-28.1,12.6
				L12.4,456.9z"/>
		</g>
		
			<linearGradient id="SVGID_1_" gradientUnits="userSpaceOnUse" x1="610.3828" y1="1156.1774" x2="634.5889" y2="1144.7128" gradientTransform="matrix(1.0929 0 0 1.0929 -632.7643 -794.1214)">
			<stop  offset="0.279" style="stop-color:#FFFFFF"/>
			<stop  offset="0.56" style="stop-color:#FFFFFF"/>
			<stop  offset="0.565" style="stop-color:#010101"/>
		</linearGradient>
		<path fill="url(#SVGID_1_)" d="M33.1,463.9c0-1.9,0.3-3.6,0.9-5.2c0.6-1.5,1.5-2.9,2.7-3.9c1.1-1.1,2.5-1.9,4.1-2.5
			c1.6-0.6,3.3-0.9,5.2-0.9c1.9,0,3.6,0.3,5.2,0.9c1.6,0.6,2.9,1.4,4.1,2.5c1.2,1.1,2.1,2.4,2.7,3.9s0.9,3.3,0.9,5.2
			c0,1.9-0.3,3.6-0.9,5.1s-1.5,2.9-2.7,4s-2.5,2-4.1,2.6c-1.6,0.6-3.3,0.9-5.2,0.9c-1.9,0-3.6-0.3-5.2-0.9c-1.6-0.6-2.9-1.5-4.1-2.6
			c-1.1-1.1-2.1-2.5-2.7-4C33.4,467.5,33.1,465.8,33.1,463.9z M37.7,463.9c0,1.3,0.2,2.5,0.6,3.5c0.4,1.1,0.9,2,1.7,2.8
			c0.8,0.8,1.6,1.4,2.6,1.8c1,0.5,2.1,0.6,3.3,0.6c1.2,0,2.3-0.2,3.3-0.6c1-0.5,1.9-1.1,2.6-1.8s1.3-1.7,1.7-2.8
			c0.4-1.1,0.6-2.2,0.6-3.5c0-1.2-0.2-2.4-0.6-3.5s-0.9-2-1.7-2.8c-0.7-0.8-1.6-1.4-2.6-1.9c-1-0.5-2.2-0.7-3.4-0.7
			s-2.3,0.2-3.4,0.7c-1,0.5-1.9,1.1-2.6,1.9c-0.7,0.8-1.3,1.7-1.7,2.8C37.9,461.5,37.7,462.7,37.7,463.9z"/>
	</g>
	<g>
		<path fill="#010101" d="M81,459.4c1.1,0,1.9,0.2,2.7,0.5c0.8,0.4,1.4,0.9,1.9,1.5c0.5,0.6,0.8,1.3,1.1,2.1
			c0.2,0.8,0.4,1.6,0.4,2.4V476h-4.1v-9c0-0.5-0.1-0.9-0.1-1.5c-0.1-0.5-0.2-1-0.4-1.4c-0.2-0.4-0.5-0.8-0.9-1
			c-0.4-0.3-0.9-0.4-1.6-0.4c-0.6,0-1.2,0.1-1.6,0.4c-0.4,0.3-0.8,0.6-1.1,1.1c-0.3,0.4-0.5,0.9-0.6,1.4c-0.1,0.5-0.2,1.1-0.2,1.6
			v8.8h-4.1v-9.7c0-1-0.2-1.8-0.7-2.5c-0.5-0.6-1.2-1-2.3-1c-0.6,0-1.1,0.1-1.6,0.4c-0.5,0.2-0.8,0.6-1.1,1
			c-0.3,0.4-0.5,0.9-0.6,1.4c-0.1,0.5-0.2,1.1-0.2,1.6v8.9h-4v-16.1h3.8v2.6h0.1c0.2-0.4,0.4-0.8,0.7-1.1c0.3-0.4,0.6-0.7,1.1-1
			c0.4-0.3,0.9-0.5,1.4-0.7s1.1-0.2,1.8-0.2c1.2,0,2.3,0.3,3.1,0.8c0.8,0.6,1.5,1.3,1.9,2.2c0.5-1,1.2-1.8,2.2-2.3
			C78.7,459.6,79.8,459.4,81,459.4z"/>
		<path fill="#010101" d="M90.6,459.8h3.8v2.6h0.1c0.4-0.8,1-1.5,1.9-2.1c0.9-0.6,1.9-0.9,3.2-0.9c1.1,0,1.9,0.2,2.7,0.5
			s1.4,0.9,1.9,1.5c0.5,0.6,0.8,1.3,1.1,2.1c0.2,0.8,0.4,1.6,0.4,2.4V476h-4.1v-9c0-0.5-0.1-0.9-0.1-1.5c-0.1-0.5-0.2-1-0.4-1.4
			c-0.2-0.4-0.5-0.8-0.9-1c-0.4-0.3-0.9-0.4-1.6-0.4c-0.6,0-1.2,0.1-1.7,0.4c-0.5,0.2-0.9,0.6-1.2,1c-0.3,0.4-0.5,0.9-0.7,1.4
			c-0.2,0.5-0.2,1.1-0.2,1.6v8.9h-4.1L90.6,459.8L90.6,459.8z"/>
		<path fill="#010101" d="M108.8,454.4c0-0.6,0.2-1.2,0.7-1.7c0.5-0.5,1.1-0.7,1.8-0.7c0.8,0,1.4,0.2,1.9,0.7
			c0.5,0.5,0.8,1.1,0.8,1.8c0,0.7-0.2,1.3-0.8,1.7c-0.5,0.5-1.1,0.7-1.9,0.7s-1.4-0.2-1.8-0.7C109,455.6,108.8,455,108.8,454.4z
			 M109.3,459.8h4.1V476h-4.1V459.8z"/>
		<path fill="#010101" d="M117.3,459.8h3.8v2.6h0.1c0.4-0.8,1-1.5,1.9-2.1c0.9-0.6,1.9-0.9,3.2-0.9c1.1,0,1.9,0.2,2.7,0.5
			s1.4,0.9,1.9,1.5c0.5,0.6,0.8,1.3,1.1,2.1c0.2,0.8,0.4,1.6,0.4,2.4V476h-4.1v-9c0-0.5-0.1-0.9-0.1-1.5c-0.1-0.5-0.2-1-0.4-1.4
			c-0.2-0.4-0.5-0.8-0.9-1c-0.4-0.3-0.9-0.4-1.6-0.4c-0.6,0-1.2,0.1-1.7,0.4c-0.5,0.2-0.9,0.6-1.2,1c-0.3,0.4-0.5,0.9-0.7,1.4
			c-0.2,0.5-0.2,1.1-0.2,1.6v8.9h-4.1L117.3,459.8L117.3,459.8z"/>
		<path fill="#010101" d="M135,467.8c0-1.3,0.2-2.5,0.7-3.5c0.5-1.1,1.1-1.9,1.9-2.7c0.8-0.8,1.7-1.3,2.8-1.7
			c1.1-0.4,2.2-0.6,3.4-0.6s2.3,0.2,3.4,0.6s2,1,2.8,1.7c0.8,0.8,1.4,1.6,1.9,2.7c0.5,1.1,0.7,2.2,0.7,3.5c0,1.3-0.2,2.5-0.7,3.5
			c-0.5,1.1-1.1,1.9-1.9,2.7c-0.8,0.8-1.7,1.4-2.8,1.8c-1.1,0.4-2.2,0.6-3.4,0.6s-2.3-0.2-3.4-0.6c-1.1-0.4-2-1-2.8-1.8
			c-0.8-0.8-1.4-1.6-1.9-2.7C135.2,470.3,135,469.1,135,467.8z M139.1,467.8c0,0.6,0.1,1.2,0.3,1.9c0.2,0.6,0.5,1.2,0.9,1.7
			c0.4,0.5,0.9,0.9,1.5,1.2c0.6,0.3,1.3,0.5,2.1,0.5c0.8,0,1.5-0.2,2.1-0.5c0.6-0.3,1.1-0.7,1.5-1.2c0.4-0.5,0.6-1.1,0.9-1.7
			c0.2-0.6,0.3-1.2,0.3-1.9c0-0.6-0.1-1.2-0.3-1.9c-0.2-0.6-0.5-1.2-0.9-1.6c-0.4-0.5-0.9-0.9-1.5-1.2c-0.6-0.3-1.3-0.5-2.1-0.5
			s-1.5,0.2-2.1,0.5s-1.1,0.7-1.5,1.2s-0.6,1.1-0.9,1.6C139.1,466.6,139.1,467.2,139.1,467.8z"/>
		<path fill="#010101" d="M159.2,467.4l-5.8-7.6h4.8l3.5,5l3.6-5h4.6l-5.8,7.6l6.6,8.6h-4.9l-4.2-5.9l-4.2,5.9h-4.8L159.2,467.4z"/>
	</g>
</g>
</svg>
